<svg width="637" height="350" viewBox="0 0 637 350" fill="none" xmlns="http://www.w3.org/2000/svg">
<g clip-path="url(#clip0_8_2)">
<g filter="url(#filter0_ddd_8_2)">
<path d="M9.3234 214.305L10.8083 212.82L12.2932 214.305L10.8083 215.79L9.3234 214.305ZM62.7807 226.184L64.2656 224.699L65.7505 226.184L64.2656 227.669L62.7807 226.184ZM59.8108 229.154L61.2958 227.669L62.7807 229.154L61.2958 230.639L59.8108 229.154ZM44.9616 244.003L46.4465 242.518L47.9314 244.003L46.4465 245.488L44.9616 244.003ZM41.9917 246.973L43.4767 245.488L44.9616 246.973L43.4767 248.458L41.9917 246.973ZM59.8108 223.214L61.2958 221.729L62.7807 223.214L61.2958 224.699L59.8108 223.214ZM56.841 226.184L58.3259 224.699L59.8108 226.184L58.3259 227.669L56.841 226.184ZM41.9917 241.033L43.4767 239.548L44.9616 241.033L43.4767 242.518L41.9917 241.033ZM39.0219 244.003L40.5068 242.518L41.9917 244.003L40.5068 245.488L39.0219 244.003ZM56.841 220.244L58.3259 218.759L59.8108 220.244L58.3259 221.729L56.841 220.244ZM53.8711 223.214L55.3561 221.729L56.841 223.214L55.3561 224.699L53.8711 223.214ZM39.0219 238.063L40.5068 236.579L41.9917 238.063L40.5068 239.548L39.0219 238.063ZM36.052 241.033L37.537 239.548L39.0219 241.033L37.537 242.518L36.052 241.033ZM53.8711 217.275L55.3561 215.79L56.841 217.275L55.3561 218.759L53.8711 217.275ZM50.9013 220.244L52.3862 218.759L53.8711 220.244L52.3862 221.729L50.9013 220.244ZM36.052 235.094L37.537 233.609L39.0219 235.094L37.537 236.579L36.052 235.094ZM33.0822 238.063L34.5671 236.579L36.052 238.063L34.5671 239.548L33.0822 238.063ZM50.9013 214.305L52.3862 212.82L53.8711 214.305L52.3862 215.79L50.9013 214.305ZM47.9314 217.275L49.4164 215.79L50.9013 217.275L49.4164 218.759L47.9314 217.275ZM44.9616 220.244L46.4465 218.759L47.9314 220.244L46.4465 221.729L44.9616 220.244ZM33.0822 232.124L34.5671 230.639L36.052 232.124L34.5671 233.609L33.0822 232.124ZM30.1123 235.094L31.5973 233.609L33.0822 235.094L31.5973 236.579L30.1123 235.094ZM47.9314 211.335L49.4164 209.85L50.9013 211.335L49.4164 212.82L47.9314 211.335ZM44.9616 214.305L46.4465 212.82L47.9314 214.305L46.4465 215.79L44.9616 214.305ZM41.9917 217.275L43.4767 215.79L44.9616 217.275L43.4767 218.759L41.9917 217.275ZM39.0219 220.244L40.5068 218.759L41.9917 220.244L40.5068 221.729L39.0219 220.244ZM30.1123 229.154L31.5973 227.669L33.0822 229.154L31.5973 230.639L30.1123 229.154ZM27.1425 232.124L28.6274 230.639L30.1123 232.124L28.6274 233.609L27.1425 232.124ZM44.9616 208.365L46.4465 206.88L47.9314 208.365L46.4465 209.85L44.9616 208.365ZM41.9917 211.335L43.4767 209.85L44.9616 211.335L43.4767 212.82L41.9917 211.335ZM36.052 217.275L37.537 215.79L39.0219 217.275L37.537 218.759L36.052 217.275ZM33.0822 220.244L34.5671 218.759L36.052 220.244L34.5671 221.729L33.0822 220.244ZM27.1425 226.184L28.6274 224.699L30.1123 226.184L28.6274 227.669L27.1425 226.184ZM24.1726 229.154L25.6576 227.669L27.1425 229.154L25.6576 230.639L24.1726 229.154ZM41.9917 205.395L43.4767 203.91L44.9616 205.395L43.4767 206.88L41.9917 205.395ZM39.0219 208.365L40.5068 206.88L41.9917 208.365L40.5068 209.85L39.0219 208.365ZM30.1123 217.275L31.5973 215.79L33.0822 217.275L31.5973 218.759L30.1123 217.275ZM27.1425 220.244L28.6274 218.759L30.1123 220.244L28.6274 221.729L27.1425 220.244ZM24.1726 223.214L25.6576 221.729L27.1425 223.214L25.6576 224.699L24.1726 223.214ZM21.2028 226.184L22.6877 224.699L24.1726 226.184L22.6877 227.669L21.2028 226.184ZM39.0219 202.425L40.5068 200.94L41.9917 202.425L40.5068 203.91L39.0219 202.425ZM36.052 205.395L37.537 203.91L39.0219 205.395L37.537 206.88L36.052 205.395ZM24.1726 217.275L25.6576 215.79L27.1425 217.275L25.6576 218.759L24.1726 217.275ZM21.2028 220.244L22.6877 218.759L24.1726 220.244L22.6877 221.729L21.2028 220.244ZM18.2329 223.214L19.7179 221.729L21.2028 223.214L19.7179 224.699L18.2329 223.214ZM36.052 199.455L37.537 197.97L39.0219 199.455L37.537 200.94L36.052 199.455ZM33.0822 202.425L34.5671 200.94L36.052 202.425L34.5671 203.91L33.0822 202.425ZM18.2329 217.275L19.7179 215.79L21.2028 217.275L19.7179 218.759L18.2329 217.275ZM15.2631 220.244L16.748 218.759L18.2329 220.244L16.748 221.729L15.2631 220.244ZM33.0822 196.486L34.5671 195.001L36.052 196.486L34.5671 197.97L33.0822 196.486ZM30.1123 199.455L31.5973 197.97L33.0822 199.455L31.5973 200.94L30.1123 199.455ZM15.2631 214.305L16.748 212.82L18.2329 214.305L16.748 215.79L15.2631 214.305ZM12.2932 217.275L13.7782 215.79L15.2631 217.275L13.7782 218.759L12.2932 217.275ZM30.1123 193.516L31.5973 192.031L33.0822 193.516L31.5973 195.001L30.1123 193.516ZM27.1425 196.486L28.6274 195.001L30.1123 196.486L28.6274 197.97L27.1425 196.486ZM12.2932 211.335L13.7782 209.85L15.2631 211.335L13.7782 212.82L12.2932 211.335ZM50.9129 196.474L52.3978 194.989L53.8827 196.474L52.3978 197.959L50.9129 196.474ZM86.5511 202.414L88.036 200.929L89.5209 202.414L88.036 203.899L86.5511 202.414ZM83.5812 205.384L85.0661 203.899L86.5511 205.384L85.0661 206.868L83.5812 205.384ZM80.6114 208.353L82.0963 206.868L83.5812 208.353L82.0963 209.838L80.6114 208.353ZM77.6415 211.323L79.1264 209.838L80.6114 211.323L79.1264 212.808L77.6415 211.323ZM74.6717 214.293L76.1566 212.808L77.6415 214.293L76.1566 215.778L74.6717 214.293ZM71.7018 217.263L73.1867 215.778L74.6717 217.263L73.1867 218.748L71.7018 217.263ZM83.5812 199.444L85.0661 197.959L86.5511 199.444L85.0661 200.929L83.5812 199.444ZM80.6114 202.414L82.0963 200.929L83.5812 202.414L82.0963 203.899L80.6114 202.414ZM77.6415 205.384L79.1264 203.899L80.6114 205.384L79.1264 206.868L77.6415 205.384ZM74.6717 208.353L76.1566 206.868L77.6415 208.353L76.1566 209.838L74.6717 208.353ZM71.7018 211.323L73.1867 209.838L74.6717 211.323L73.1867 212.808L71.7018 211.323ZM68.732 214.293L70.2169 212.808L71.7018 214.293L70.2169 215.778L68.732 214.293ZM65.7621 217.263L67.247 215.778L68.732 217.263L67.247 218.748L65.7621 217.263ZM65.7621 211.323L67.247 209.838L68.732 211.323L67.247 212.808L65.7621 211.323ZM62.7923 214.293L64.2772 212.808L65.7621 214.293L64.2772 215.778L62.7923 214.293ZM77.6415 193.504L79.1264 192.019L80.6114 193.504L79.1264 194.989L77.6415 193.504ZM74.6717 196.474L76.1566 194.989L77.6415 196.474L76.1566 197.959L74.6717 196.474ZM71.7018 199.444L73.1867 197.959L74.6717 199.444L73.1867 200.929L71.7018 199.444ZM68.732 202.414L70.2169 200.929L71.7018 202.414L70.2169 203.899L68.732 202.414ZM65.7621 205.384L67.247 203.899L68.732 205.384L67.247 206.868L65.7621 205.384ZM62.7923 208.353L64.2772 206.868L65.7621 208.353L64.2772 209.838L62.7923 208.353ZM59.8224 211.323L61.3073 209.838L62.7923 211.323L61.3073 212.808L59.8224 211.323ZM74.6717 190.534L76.1566 189.049L77.6415 190.534L76.1566 192.019L74.6717 190.534ZM71.7018 193.504L73.1867 192.019L74.6717 193.504L73.1867 194.989L71.7018 193.504ZM68.732 196.474L70.2169 194.989L71.7018 196.474L70.2169 197.959L68.732 196.474ZM65.7621 199.444L67.247 197.959L68.732 199.444L67.247 200.929L65.7621 199.444ZM62.7923 202.414L64.2772 200.929L65.7621 202.414L64.2772 203.899L62.7923 202.414ZM59.8224 205.384L61.3073 203.899L62.7923 205.384L61.3074 206.868L59.8224 205.384ZM56.8526 208.353L58.3375 206.868L59.8224 208.353L58.3375 209.838L56.8526 208.353ZM71.7018 187.564L73.1867 186.08L74.6717 187.564L73.1867 189.049L71.7018 187.564ZM68.732 190.534L70.2169 189.049L71.7018 190.534L70.2169 192.019L68.732 190.534ZM56.8526 202.414L58.3375 200.929L59.8224 202.414L58.3375 203.899L56.8526 202.414ZM53.8827 205.384L55.3677 203.899L56.8526 205.384L55.3677 206.868L53.8827 205.384ZM68.732 184.595L70.2169 183.11L71.7018 184.595L70.2169 186.08L68.732 184.595ZM65.7621 187.564L67.247 186.08L68.732 187.564L67.247 189.049L65.7621 187.564ZM62.7923 190.534L64.2772 189.049L65.7621 190.534L64.2772 192.019L62.7923 190.534ZM59.8224 193.504L61.3073 192.019L62.7923 193.504L61.3073 194.989L59.8224 193.504ZM56.8526 196.474L58.3375 194.989L59.8224 196.474L58.3375 197.959L56.8526 196.474ZM53.8827 199.444L55.3677 197.959L56.8526 199.444L55.3677 200.929L53.8827 199.444ZM50.9129 202.414L52.3978 200.929L53.8827 202.414L52.3978 203.899L50.9129 202.414ZM62.7923 184.595L64.2772 183.11L65.7621 184.595L64.2772 186.08L62.7923 184.595ZM59.8224 187.564L61.3073 186.08L62.7923 187.564L61.3073 189.049L59.8224 187.564ZM56.8526 190.534L58.3375 189.049L59.8224 190.534L58.3375 192.019L56.8526 190.534ZM53.8827 193.504L55.3677 192.019L56.8526 193.504L55.3677 194.989L53.8827 193.504ZM71.696 175.691L73.1809 174.206L74.6659 175.691L73.1809 177.176L71.696 175.691ZM110.304 178.661L111.789 177.176L113.274 178.661L111.789 180.146L110.304 178.661ZM107.334 181.631L108.819 180.146L110.304 181.631L108.819 183.115L107.334 181.631ZM95.4548 193.51L96.9397 192.025L98.4247 193.51L96.9397 194.995L95.4548 193.51ZM92.485 196.48L93.9699 194.995L95.4548 196.48L93.9699 197.965L92.485 196.48ZM107.334 175.691L108.819 174.206L110.304 175.691L108.819 177.176L107.334 175.691ZM104.364 178.661L105.849 177.176L107.334 178.661L105.849 180.146L104.364 178.661ZM92.485 190.54L93.9699 189.055L95.4548 190.54L93.9699 192.025L92.485 190.54ZM89.5151 193.51L91 192.025L92.485 193.51L91 194.995L89.5151 193.51ZM101.395 175.691L102.879 174.206L104.364 175.691L102.879 177.176L101.395 175.691ZM98.4247 178.661L99.9096 177.176L101.395 178.661L99.9096 180.146L98.4247 178.661ZM92.485 184.6L93.9699 183.115L95.4548 184.6L93.9699 186.085L92.485 184.6ZM89.5151 187.57L91 186.085L92.485 187.57L91 189.055L89.5151 187.57ZM95.4548 175.691L96.9397 174.206L98.4247 175.691L96.9397 177.176L95.4548 175.691ZM92.485 178.661L93.9699 177.176L95.4548 178.661L93.9699 180.146L92.485 178.661ZM89.5151 181.631L91 180.146L92.485 181.631L91 183.115L89.5151 181.631ZM92.485 172.721L93.9699 171.236L95.4548 172.721L93.9699 174.206L92.485 172.721ZM89.5151 175.691L91 174.206L92.485 175.691L91 177.176L89.5151 175.691ZM86.5453 178.661L88.0302 177.176L89.5151 178.661L88.0302 180.146L86.5453 178.661ZM92.485 166.781L93.9699 165.296L95.4548 166.781L93.9699 168.266L92.485 166.781ZM89.5151 169.751L91 168.266L92.485 169.751L91 171.236L89.5151 169.751ZM83.5754 175.691L85.0603 174.206L86.5453 175.691L85.0603 177.176L83.5754 175.691ZM80.6056 178.661L82.0905 177.176L83.5754 178.661L82.0905 180.146L80.6056 178.661ZM92.485 160.842L93.9699 159.357L95.4548 160.842L93.9699 162.327L92.485 160.842ZM89.5151 163.811L91 162.327L92.485 163.811L91 165.296L89.5151 163.811ZM77.6357 175.691L79.1206 174.206L80.6056 175.691L79.1206 177.176L77.6357 175.691ZM74.6659 178.661L76.1508 177.176L77.6357 178.661L76.1508 180.146L74.6659 178.661ZM89.5151 157.872L91 156.387L92.485 157.872L91 159.357L89.5151 157.872ZM86.5453 160.842L88.0302 159.357L89.5151 160.842L88.0302 162.327L86.5453 160.842ZM74.6659 172.721L76.1508 171.236L77.6357 172.721L76.1508 174.206L74.6659 172.721ZM86.5395 137.089L88.0244 135.604L89.5093 137.089L88.0244 138.574L86.5395 137.089ZM131.087 157.878L132.572 156.393L134.057 157.878L132.572 159.362L131.087 157.878ZM128.117 160.847L129.602 159.362L131.087 160.847L129.602 162.332L128.117 160.847ZM125.147 163.817L126.632 162.332L128.117 163.817L126.632 165.302L125.147 163.817ZM122.178 166.787L123.663 165.302L125.147 166.787L123.663 168.272L122.178 166.787ZM131.087 151.938L132.572 150.453L134.057 151.938L132.572 153.423L131.087 151.938ZM128.117 154.908L129.602 153.423L131.087 154.908L129.602 156.393L128.117 154.908ZM125.147 157.878L126.632 156.393L128.117 157.878L126.632 159.362L125.147 157.878ZM122.178 160.847L123.663 159.362L125.147 160.847L123.663 162.332L122.178 160.847ZM119.208 163.817L120.693 162.332L122.178 163.817L120.693 165.302L119.208 163.817ZM116.238 166.787L117.723 165.302L119.208 166.787L117.723 168.272L116.238 166.787ZM128.117 148.968L129.602 147.483L131.087 148.968L129.602 150.453L128.117 148.968ZM125.147 151.938L126.632 150.453L128.117 151.938L126.632 153.423L125.147 151.938ZM116.238 160.847L117.723 159.362L119.208 160.847L117.723 162.332L116.238 160.847ZM113.268 163.817L114.753 162.332L116.238 163.817L114.753 165.302L113.268 163.817ZM113.268 157.878L114.753 156.393L116.238 157.878L114.753 159.362L113.268 157.878ZM110.298 160.847L111.783 159.362L113.268 160.847L111.783 162.332L110.298 160.847ZM110.298 154.908L111.783 153.423L113.268 154.908L111.783 156.393L110.298 154.908ZM107.328 157.878L108.813 156.393L110.298 157.878L108.813 159.362L107.328 157.878ZM107.328 151.938L108.813 150.453L110.298 151.938L108.813 153.423L107.328 151.938ZM104.359 154.908L105.843 153.423L107.328 154.908L105.843 156.393L104.359 154.908ZM110.298 143.028L111.783 141.543L113.268 143.028L111.783 144.513L110.298 143.028ZM107.328 145.998L108.813 144.513L110.298 145.998L108.813 147.483L107.328 145.998ZM104.359 148.968L105.843 147.483L107.328 148.968L105.843 150.453L104.359 148.968ZM101.389 151.938L102.874 150.453L104.359 151.938L102.874 153.423L101.389 151.938ZM98.4189 154.908L99.9038 153.423L101.389 154.908L99.9038 156.393L98.4189 154.908ZM107.328 140.058L108.813 138.574L110.298 140.058L108.813 141.543L107.328 140.058ZM104.359 143.028L105.843 141.543L107.328 143.028L105.843 144.513L104.359 143.028ZM101.389 145.998L102.874 144.513L104.359 145.998L102.874 147.483L101.389 145.998ZM98.4189 148.968L99.9038 147.483L101.389 148.968L99.9038 150.453L98.4189 148.968ZM95.449 151.938L96.9339 150.453L98.4189 151.938L96.9339 153.423L95.449 151.938ZM98.4189 143.028L99.9038 141.543L101.389 143.028L99.9038 144.513L98.4189 143.028ZM95.449 145.998L96.9339 144.513L98.4189 145.998L96.9339 147.483L95.449 145.998ZM95.449 140.058L96.9339 138.574L98.4189 140.058L96.9339 141.543L95.449 140.058ZM92.4792 143.028L93.9641 141.543L95.449 143.028L93.9641 144.513L92.4792 143.028ZM92.4792 137.089L93.9641 135.604L95.449 137.089L93.9641 138.574L92.4792 137.089ZM89.5093 140.058L90.9942 138.574L92.4792 140.058L90.9942 141.543L89.5093 140.058ZM89.5093 134.119L90.9942 132.634L92.4792 134.119L90.9942 135.604L89.5093 134.119ZM137.033 86.5954L138.518 85.1105L140.003 86.5954L138.518 88.0803L137.033 86.5954ZM184.55 104.414L186.035 102.93L187.52 104.414L186.035 105.899L184.55 104.414ZM181.58 107.384L183.065 105.899L184.55 107.384L183.065 108.869L181.58 107.384ZM178.611 110.354L180.095 108.869L181.58 110.354L180.095 111.839L178.611 110.354ZM175.641 113.324L177.126 111.839L178.611 113.324L177.126 114.809L175.641 113.324ZM172.671 116.294L174.156 114.809L175.641 116.294L174.156 117.779L172.671 116.294ZM169.701 119.264L171.186 117.779L172.671 119.264L171.186 120.749L169.701 119.264ZM184.55 98.4748L186.035 96.9898L187.52 98.4748L186.035 99.9597L184.55 98.4748ZM181.58 101.445L183.065 99.9597L184.55 101.445L183.065 102.93L181.58 101.445ZM178.611 104.414L180.095 102.93L181.58 104.414L180.095 105.899L178.611 104.414ZM175.641 107.384L177.126 105.899L178.611 107.384L177.126 108.869L175.641 107.384ZM172.671 110.354L174.156 108.869L175.641 110.354L174.156 111.839L172.671 110.354ZM169.701 113.324L171.186 111.839L172.671 113.324L171.186 114.809L169.701 113.324ZM166.731 116.294L168.216 114.809L169.701 116.294L168.216 117.779L166.731 116.294ZM163.761 119.264L165.246 117.779L166.731 119.264L165.246 120.749L163.761 119.264ZM181.58 95.5049L183.065 94.02L184.55 95.5049L183.065 96.9898L181.58 95.5049ZM178.611 98.4748L180.095 96.9898L181.58 98.4748L180.095 99.9597L178.611 98.4748ZM163.761 113.324L165.246 111.839L166.731 113.324L165.246 114.809L163.761 113.324ZM160.791 116.294L162.276 114.809L163.761 116.294L162.276 117.779L160.791 116.294ZM178.611 92.5351L180.095 91.0502L181.58 92.5351L180.095 94.02L178.611 92.5351ZM175.641 95.5049L177.126 94.02L178.611 95.5049L177.126 96.9898L175.641 95.5049ZM175.641 89.5652L177.126 88.0803L178.611 89.5652L177.126 91.0502L175.641 89.5652ZM172.671 92.5351L174.156 91.0502L175.641 92.5351L174.156 94.02L172.671 92.5351ZM172.671 86.5954L174.156 85.1105L175.641 86.5954L174.156 88.0803L172.671 86.5954ZM169.701 89.5652L171.186 88.0803L172.671 89.5652L171.186 91.0502L169.701 89.5652ZM166.731 92.5351L168.216 91.0502L169.701 92.5351L168.216 94.02L166.731 92.5351ZM163.761 95.5049L165.246 94.02L166.731 95.5049L165.246 96.9899L163.761 95.5049ZM160.791 98.4748L162.276 96.9898L163.761 98.4748L162.276 99.9597L160.791 98.4748ZM157.822 101.445L159.307 99.9597L160.791 101.445L159.307 102.93L157.822 101.445ZM154.852 104.414L156.337 102.93L157.822 104.414L156.337 105.899L154.852 104.414ZM166.731 86.5954L168.216 85.1105L169.701 86.5954L168.216 88.0803L166.731 86.5954ZM163.761 89.5652L165.246 88.0803L166.731 89.5652L165.246 91.0502L163.761 89.5652ZM160.791 92.5351L162.276 91.0502L163.761 92.5351L162.276 94.02L160.791 92.5351ZM157.822 95.5049L159.307 94.02L160.791 95.5049L159.307 96.9898L157.822 95.5049ZM154.852 98.4748L156.337 96.9898L157.822 98.4748L156.337 99.9597L154.852 98.4748ZM151.882 101.445L153.367 99.9597L154.852 101.445L153.367 102.93L151.882 101.445ZM148.912 104.414L150.397 102.93L151.882 104.414L150.397 105.899L148.912 104.414ZM148.912 98.4748L150.397 96.9898L151.882 98.4748L150.397 99.9597L148.912 98.4748ZM145.942 101.445L147.427 99.9597L148.912 101.445L147.427 102.93L145.942 101.445ZM145.942 95.5049L147.427 94.02L148.912 95.5049L147.427 96.9899L145.942 95.5049ZM142.972 98.4748L144.457 96.9898L145.942 98.4748L144.457 99.9597L142.972 98.4748ZM160.791 74.716L162.276 73.2311L163.761 74.716L162.276 76.2009L160.791 74.716ZM157.822 77.6858L159.307 76.2009L160.791 77.6858L159.307 79.1708L157.822 77.6858ZM142.972 92.5351L144.457 91.0502L145.942 92.5351L144.457 94.02L142.972 92.5351ZM140.003 95.5049L141.487 94.02L142.972 95.5049L141.487 96.9898L140.003 95.5049ZM157.822 71.7461L159.307 70.2612L160.791 71.7461L159.307 73.2311L157.822 71.7461ZM154.852 74.716L156.337 73.2311L157.822 74.716L156.337 76.2009L154.852 74.716ZM151.882 77.6858L153.367 76.2009L154.852 77.6858L153.367 79.1708L151.882 77.6858ZM148.912 80.6557L150.397 79.1708L151.882 80.6557L150.397 82.1406L148.912 80.6557ZM145.942 83.6255L147.427 82.1406L148.912 83.6255L147.427 85.1105L145.942 83.6255ZM142.972 86.5954L144.457 85.1105L145.942 86.5954L144.457 88.0803L142.972 86.5954ZM140.003 89.5652L141.487 88.0803L142.972 89.5652L141.487 91.0502L140.003 89.5652ZM137.033 92.5351L138.518 91.0502L140.003 92.5351L138.518 94.02L137.033 92.5351ZM151.882 71.7461L153.367 70.2612L154.852 71.7461L153.367 73.2311L151.882 71.7461ZM148.912 74.716L150.397 73.2311L151.882 74.716L150.397 76.2009L148.912 74.716ZM145.942 77.6858L147.427 76.2009L148.912 77.6858L147.427 79.1708L145.942 77.6858ZM142.972 80.6557L144.457 79.1708L145.942 80.6557L144.457 82.1406L142.972 80.6557ZM140.003 83.6255L141.487 82.1406L142.972 83.6255L141.487 85.1105L140.003 83.6255ZM163.773 59.8551L165.258 58.3702L166.743 59.8551L165.258 61.3401L163.773 59.8551ZM208.321 80.6441L209.806 79.1592L211.29 80.6441L209.806 82.129L208.321 80.6441ZM205.351 83.6139L206.836 82.129L208.321 83.6139L206.836 85.0989L205.351 83.6139ZM202.381 86.5838L203.866 85.0989L205.351 86.5838L203.866 88.0687L202.381 86.5838ZM199.411 89.5536L200.896 88.0687L202.381 89.5536L200.896 91.0386L199.411 89.5536ZM208.321 74.7044L209.806 73.2195L211.29 74.7044L209.806 76.1893L208.321 74.7044ZM205.351 77.6742L206.836 76.1893L208.321 77.6742L206.836 79.1592L205.351 77.6742ZM202.381 80.6441L203.866 79.1592L205.351 80.6441L203.866 82.129L202.381 80.6441ZM199.411 83.6139L200.896 82.129L202.381 83.6139L200.896 85.0989L199.411 83.6139ZM196.441 86.5838L197.926 85.0989L199.411 86.5838L197.926 88.0687L196.441 86.5838ZM193.471 89.5536L194.956 88.0687L196.441 89.5536L194.956 91.0386L193.471 89.5536ZM205.351 71.7345L206.836 70.2496L208.321 71.7345L206.836 73.2195L205.351 71.7345ZM202.381 74.7044L203.866 73.2195L205.351 74.7044L203.866 76.1893L202.381 74.7044ZM193.471 83.6139L194.956 82.129L196.441 83.6139L194.956 85.0989L193.471 83.6139ZM190.502 86.5838L191.986 85.0989L193.471 86.5838L191.986 88.0687L190.502 86.5838ZM190.502 80.6441L191.986 79.1592L193.471 80.6441L191.986 82.129L190.502 80.6441ZM187.532 83.6139L189.017 82.129L190.502 83.6139L189.017 85.0989L187.532 83.6139ZM187.532 77.6742L189.017 76.1893L190.502 77.6742L189.017 79.1592L187.532 77.6742ZM184.562 80.6441L186.047 79.1592L187.532 80.6441L186.047 82.129L184.562 80.6441ZM184.562 74.7044L186.047 73.2195L187.532 74.7044L186.047 76.1893L184.562 74.7044ZM181.592 77.6742L183.077 76.1893L184.562 77.6742L183.077 79.1592L181.592 77.6742ZM187.532 65.7948L189.017 64.3099L190.502 65.7948L189.017 67.2798L187.532 65.7948ZM184.562 68.7647L186.047 67.2798L187.532 68.7647L186.047 70.2496L184.562 68.7647ZM181.592 71.7345L183.077 70.2496L184.562 71.7345L183.077 73.2195L181.592 71.7345ZM178.622 74.7044L180.107 73.2195L181.592 74.7044L180.107 76.1893L178.622 74.7044ZM175.652 77.6742L177.137 76.1893L178.622 77.6742L177.137 79.1592L175.652 77.6742ZM184.562 62.825L186.047 61.3401L187.532 62.825L186.047 64.3099L184.562 62.825ZM181.592 65.7948L183.077 64.3099L184.562 65.7948L183.077 67.2798L181.592 65.7948ZM178.622 68.7647L180.107 67.2798L181.592 68.7647L180.107 70.2496L178.622 68.7647ZM175.652 71.7345L177.137 70.2496L178.622 71.7345L177.137 73.2195L175.652 71.7345ZM172.682 74.7044L174.167 73.2195L175.652 74.7044L174.167 76.1893L172.682 74.7044ZM175.652 65.7948L177.137 64.3099L178.622 65.7948L177.137 67.2798L175.652 65.7948ZM172.682 68.7647L174.167 67.2798L175.652 68.7647L174.167 70.2496L172.682 68.7647ZM172.682 62.825L174.167 61.3401L175.652 62.825L174.167 64.3099L172.682 62.825ZM169.713 65.7948L171.198 64.3099L172.682 65.7948L171.198 67.2798L169.713 65.7948ZM169.713 59.8551L171.198 58.3702L172.682 59.8551L171.198 61.3401L169.713 59.8551ZM166.743 62.825L168.228 61.3401L169.713 62.825L168.228 64.3099L166.743 62.825ZM166.743 56.8853L168.228 55.4004L169.713 56.8853L168.228 58.3702L166.743 56.8853ZM199.405 47.9815L200.89 46.4966L202.375 47.9815L200.89 49.4665L199.405 47.9815ZM232.074 56.8911L233.559 55.4062L235.043 56.8911L233.559 58.376L232.074 56.8911ZM229.104 59.8609L230.589 58.376L232.074 59.8609L230.589 61.3459L229.104 59.8609ZM226.134 62.8308L227.619 61.3459L229.104 62.8308L227.619 64.3157L226.134 62.8308ZM223.164 65.8006L224.649 64.3157L226.134 65.8006L224.649 67.2856L223.164 65.8006ZM220.194 68.7705L221.679 67.2856L223.164 68.7705L221.679 70.2554L220.194 68.7705ZM232.074 50.9514L233.559 49.4665L235.043 50.9514L233.559 52.4363L232.074 50.9514ZM229.104 53.9212L230.589 52.4363L232.074 53.9212L230.589 55.4062L229.104 53.9212ZM226.134 56.8911L227.619 55.4062L229.104 56.8911L227.619 58.376L226.134 56.8911ZM223.164 59.8609L224.649 58.376L226.134 59.8609L224.649 61.3459L223.164 59.8609ZM220.194 62.8308L221.679 61.3459L223.164 62.8308L221.679 64.3157L220.194 62.8308ZM217.224 65.8006L218.709 64.3157L220.194 65.8006L218.709 67.2856L217.224 65.8006ZM214.255 68.7705L215.739 67.2856L217.224 68.7705L215.739 70.2554L214.255 68.7705ZM229.104 47.9816L230.589 46.4966L232.074 47.9815L230.589 49.4665L229.104 47.9816ZM226.134 50.9514L227.619 49.4665L229.104 50.9514L227.619 52.4363L226.134 50.9514ZM214.255 62.8308L215.739 61.3459L217.224 62.8308L215.739 64.3157L214.255 62.8308ZM211.285 65.8006L212.77 64.3157L214.255 65.8006L212.77 67.2856L211.285 65.8006ZM226.134 45.0117L227.619 43.5268L229.104 45.0117L227.619 46.4966L226.134 45.0117ZM223.164 47.9816L224.649 46.4966L226.134 47.9816L224.649 49.4665L223.164 47.9816ZM211.285 59.8609L212.77 58.376L214.255 59.8609L212.77 61.3459L211.285 59.8609ZM208.315 62.8308L209.8 61.3459L211.285 62.8308L209.8 64.3157L208.315 62.8308ZM223.164 42.0419L224.649 40.5569L226.134 42.0419L224.649 43.5268L223.164 42.0419ZM220.194 45.0117L221.679 43.5268L223.164 45.0117L221.679 46.4966L220.194 45.0117ZM208.315 56.8911L209.8 55.4062L211.285 56.8911L209.8 58.376L208.315 56.8911ZM205.345 59.8609L206.83 58.376L208.315 59.8609L206.83 61.3459L205.345 59.8609ZM220.194 39.072L221.679 37.5871L223.164 39.072L221.679 40.5569L220.194 39.072ZM217.224 42.0419L218.709 40.5569L220.194 42.0419L218.709 43.5268L217.224 42.0419ZM205.345 53.9212L206.83 52.4363L208.315 53.9212L206.83 55.4062L205.345 53.9212ZM202.375 56.8911L203.86 55.4062L205.345 56.8911L203.86 58.376L202.375 56.8911ZM217.224 36.1022L218.709 34.6172L220.194 36.1022L218.709 37.5871L217.224 36.1022ZM214.255 39.072L215.739 37.5871L217.224 39.072L215.739 40.5569L214.255 39.072ZM211.285 42.0419L212.77 40.5569L214.255 42.0419L212.77 43.5268L211.285 42.0419ZM208.315 45.0117L209.8 43.5268L211.285 45.0117L209.8 46.4966L208.315 45.0117ZM205.345 47.9815L206.83 46.4966L208.315 47.9816L206.83 49.4665L205.345 47.9815ZM202.375 50.9514L203.86 49.4665L205.345 50.9514L203.86 52.4363L202.375 50.9514ZM199.405 53.9212L200.89 52.4363L202.375 53.9212L200.89 55.4062L199.405 53.9212ZM211.285 36.1022L212.77 34.6172L214.255 36.1022L212.77 37.5871L211.285 36.1022ZM208.315 39.072L209.8 37.5871L211.285 39.072L209.8 40.5569L208.315 39.072ZM205.345 42.0419L206.83 40.5569L208.315 42.0419L206.83 43.5268L205.345 42.0419ZM202.375 45.0117L203.86 43.5268L205.345 45.0117L203.86 46.4966L202.375 45.0117ZM220.188 27.1984L221.673 25.7135L223.158 27.1984L221.673 28.6833L220.188 27.1984ZM255.827 56.8969L257.312 55.412L258.796 56.8969L257.312 58.3818L255.827 56.8969ZM252.857 59.8667L254.342 58.3818L255.827 59.8667L254.342 61.3517L252.857 59.8667ZM252.857 53.927L254.342 52.4421L255.827 53.927L254.342 55.412L252.857 53.927ZM249.887 56.8969L251.372 55.412L252.857 56.8969L251.372 58.3818L249.887 56.8969ZM249.887 50.9572L251.372 49.4723L252.857 50.9572L251.372 52.4421L249.887 50.9572ZM246.917 53.927L248.402 52.4421L249.887 53.927L248.402 55.412L246.917 53.927ZM246.917 47.9874L248.402 46.5024L249.887 47.9874L248.402 49.4723L246.917 47.9874ZM243.947 50.9572L245.432 49.4723L246.917 50.9572L245.432 52.4421L243.947 50.9572ZM255.827 33.1381L257.312 31.6532L258.796 33.1381L257.312 34.623L255.827 33.1381ZM252.857 36.108L254.342 34.623L255.827 36.108L254.342 37.5929L252.857 36.108ZM249.887 39.0778L251.372 37.5929L252.857 39.0778L251.372 40.5627L249.887 39.0778ZM246.917 42.0477L248.402 40.5627L249.887 42.0477L248.402 43.5326L246.917 42.0477ZM243.947 45.0175L245.432 43.5326L246.917 45.0175L245.432 46.5024L243.947 45.0175ZM240.977 47.9874L242.462 46.5024L243.947 47.9874L242.462 49.4723L240.977 47.9874ZM255.827 27.1984L257.312 25.7135L258.796 27.1984L257.312 28.6833L255.827 27.1984ZM252.857 30.1683L254.342 28.6833L255.827 30.1683L254.342 31.6532L252.857 30.1683ZM249.887 33.1381L251.372 31.6532L252.857 33.1381L251.372 34.623L249.887 33.1381ZM246.917 36.108L248.402 34.623L249.887 36.108L248.402 37.5929L246.917 36.108ZM243.947 39.0778L245.432 37.5929L246.917 39.0778L245.432 40.5627L243.947 39.0778ZM240.977 42.0477L242.462 40.5627L243.947 42.0477L242.462 43.5326L240.977 42.0477ZM238.008 45.0175L239.492 43.5326L240.977 45.0175L239.492 46.5024L238.008 45.0175ZM252.857 24.2286L254.342 22.7436L255.827 24.2286L254.342 25.7135L252.857 24.2286ZM249.887 27.1984L251.372 25.7135L252.857 27.1984L251.372 28.6833L249.887 27.1984ZM238.008 39.0778L239.492 37.5929L240.977 39.0778L239.492 40.5627L238.008 39.0778ZM235.038 42.0477L236.523 40.5627L238.008 42.0477L236.523 43.5326L235.038 42.0477ZM249.887 21.2587L251.372 19.7738L252.857 21.2587L251.372 22.7436L249.887 21.2587ZM246.917 24.2286L248.402 22.7436L249.887 24.2286L248.402 25.7135L246.917 24.2286ZM235.038 36.108L236.523 34.623L238.008 36.108L236.523 37.5929L235.038 36.108ZM232.068 39.0778L233.553 37.5929L235.038 39.0778L233.553 40.5627L232.068 39.0778ZM246.917 18.2889L248.402 16.8039L249.887 18.2889L248.402 19.7738L246.917 18.2889ZM243.947 21.2587L245.432 19.7738L246.917 21.2587L245.432 22.7436L243.947 21.2587ZM232.068 33.1381L233.553 31.6532L235.038 33.1381L233.553 34.623L232.068 33.1381ZM229.098 36.108L230.583 34.623L232.068 36.108L230.583 37.5929L229.098 36.108ZM243.947 15.319L245.432 13.8341L246.917 15.319L245.432 16.8039L243.947 15.319ZM240.977 18.2889L242.462 16.8039L243.947 18.2889L242.462 19.7738L240.977 18.2889ZM229.098 30.1683L230.583 28.6833L232.068 30.1683L230.583 31.6532L229.098 30.1683ZM226.128 33.1381L227.613 31.6532L229.098 33.1381L227.613 34.623L226.128 33.1381ZM240.977 12.3492L242.462 10.8642L243.947 12.3492L242.462 13.8341L240.977 12.3492ZM238.008 15.319L239.492 13.8341L240.977 15.319L239.492 16.8039L238.008 15.319ZM235.038 18.2889L236.523 16.8039L238.008 18.2889L236.523 19.7738L235.038 18.2889ZM232.068 21.2587L233.553 19.7738L235.038 21.2587L233.553 22.7436L232.068 21.2587ZM229.098 24.2286L230.583 22.7436L232.068 24.2286L230.583 25.7135L229.098 24.2286ZM226.128 27.1984L227.613 25.7135L229.098 27.1984L227.613 28.6833L226.128 27.1984ZM223.158 30.1683L224.643 28.6833L226.128 30.1683L224.643 31.6532L223.158 30.1683ZM235.038 12.3492L236.523 10.8642L238.008 12.3492L236.523 13.8341L235.038 12.3492ZM232.068 15.319L233.553 13.8341L235.038 15.319L233.553 16.8039L232.068 15.319ZM229.098 18.2889L230.583 16.8039L232.068 18.2889L230.583 19.7738L229.098 18.2889ZM226.128 21.2587L227.613 19.7738L229.098 21.2587L227.613 22.7436L226.128 21.2587ZM223.158 24.2286L224.643 22.7436L226.128 24.2286L224.643 25.7135L223.158 24.2286Z" fill="#FF4D4D"/>
</g>
<g filter="url(#filter1_d_8_2)">
<rect x="64.5782" y="269.485" width="361.149" height="49.6974" transform="rotate(-45 64.5782 269.485)" stroke="#B11B28" stroke-width="5" shape-rendering="crispEdges"/>
</g>
<rect x="144" y="313" width="460" height="10" fill="white"/>
<rect x="130.071" y="295" width="29.6482" height="9.94973" transform="rotate(45 130.071 295)" fill="white"/>
<rect x="162" y="314.964" width="46.971" height="9.94973" transform="rotate(-45 162 314.964)" fill="white"/>
<path d="M157.648 332.593C157.283 332.156 156.76 331.938 156.08 331.938C155.149 331.938 154.515 332.285 154.179 332.979C153.985 333.381 153.871 334.018 153.835 334.892H150.859C150.91 333.567 151.149 332.496 151.579 331.68C152.396 330.126 153.846 329.349 155.93 329.349C157.577 329.349 158.887 329.807 159.861 330.724C160.835 331.633 161.322 332.84 161.322 334.344C161.322 335.497 160.979 336.521 160.291 337.416C159.84 338.01 159.099 338.673 158.067 339.403L156.843 340.273C156.076 340.818 155.55 341.212 155.264 341.455C154.984 341.699 154.748 341.981 154.555 342.304H161.354V345H150.688C150.716 343.883 150.956 342.862 151.407 341.938C151.844 340.9 152.875 339.801 154.501 338.641C155.912 337.631 156.825 336.908 157.24 336.471C157.878 335.79 158.196 335.046 158.196 334.236C158.196 333.577 158.014 333.03 157.648 332.593Z" fill="white"/>
<path d="M170.049 343.752C170.475 343.752 170.82 343.705 171.086 343.611C171.59 343.432 171.842 343.098 171.842 342.609C171.842 342.324 171.717 342.104 171.467 341.947C171.217 341.795 170.824 341.66 170.289 341.543L169.375 341.338C168.477 341.135 167.855 340.914 167.512 340.676C166.93 340.277 166.639 339.654 166.639 338.807C166.639 338.033 166.92 337.391 167.482 336.879C168.045 336.367 168.871 336.111 169.961 336.111C170.871 336.111 171.646 336.354 172.287 336.838C172.932 337.318 173.27 338.018 173.301 338.936H171.566C171.535 338.416 171.309 338.047 170.887 337.828C170.605 337.684 170.256 337.611 169.838 337.611C169.373 337.611 169.002 337.705 168.725 337.893C168.447 338.08 168.309 338.342 168.309 338.678C168.309 338.986 168.445 339.217 168.719 339.369C168.895 339.471 169.27 339.59 169.844 339.727L171.332 340.084C171.984 340.24 172.477 340.449 172.809 340.711C173.324 341.117 173.582 341.705 173.582 342.475C173.582 343.264 173.279 343.92 172.674 344.443C172.072 344.963 171.221 345.223 170.119 345.223C168.994 345.223 168.109 344.967 167.465 344.455C166.82 343.939 166.498 343.232 166.498 342.334H168.221C168.275 342.729 168.383 343.023 168.543 343.219C168.836 343.574 169.338 343.752 170.049 343.752ZM177.707 343.811V345.059L176.916 345.088C176.127 345.115 175.588 344.979 175.299 344.678C175.111 344.486 175.018 344.191 175.018 343.793V339.861H174.127V338.672H175.018V336.891H176.67V338.672H177.707V339.861H176.67V343.236C176.67 343.498 176.703 343.662 176.77 343.729C176.836 343.791 177.039 343.822 177.379 343.822C177.43 343.822 177.482 343.822 177.537 343.822C177.596 343.818 177.652 343.814 177.707 343.811ZM184.105 339.422C184.645 340.098 184.914 340.896 184.914 341.818C184.914 342.756 184.645 343.559 184.105 344.227C183.566 344.891 182.748 345.223 181.65 345.223C180.553 345.223 179.734 344.891 179.195 344.227C178.656 343.559 178.387 342.756 178.387 341.818C178.387 340.896 178.656 340.098 179.195 339.422C179.734 338.746 180.553 338.408 181.65 338.408C182.748 338.408 183.566 338.746 184.105 339.422ZM181.645 339.82C181.156 339.82 180.779 339.994 180.514 340.342C180.252 340.686 180.121 341.178 180.121 341.818C180.121 342.459 180.252 342.953 180.514 343.301C180.779 343.648 181.156 343.822 181.645 343.822C182.133 343.822 182.508 343.648 182.77 343.301C183.031 342.953 183.162 342.459 183.162 341.818C183.162 341.178 183.031 340.686 182.77 340.342C182.508 339.994 182.133 339.82 181.645 339.82ZM191.465 339.299C191.98 339.85 192.238 340.658 192.238 341.725C192.238 342.85 191.984 343.707 191.477 344.297C190.973 344.887 190.322 345.182 189.525 345.182C189.018 345.182 188.596 345.055 188.26 344.801C188.076 344.66 187.896 344.455 187.721 344.186V347.514H186.068V338.613H187.668V339.557C187.848 339.279 188.039 339.061 188.242 338.9C188.613 338.615 189.055 338.473 189.566 338.473C190.312 338.473 190.945 338.748 191.465 339.299ZM190.516 341.807C190.516 341.314 190.402 340.879 190.176 340.5C189.953 340.121 189.59 339.932 189.086 339.932C188.48 339.932 188.064 340.219 187.838 340.793C187.721 341.098 187.662 341.484 187.662 341.953C187.662 342.695 187.859 343.217 188.254 343.518C188.488 343.693 188.766 343.781 189.086 343.781C189.551 343.781 189.904 343.602 190.146 343.242C190.393 342.883 190.516 342.404 190.516 341.807ZM197.852 338.906C198.352 339.227 198.639 339.777 198.713 340.559H197.043C197.02 340.344 196.959 340.174 196.861 340.049C196.678 339.822 196.365 339.709 195.924 339.709C195.561 339.709 195.301 339.766 195.145 339.879C194.992 339.992 194.916 340.125 194.916 340.277C194.916 340.469 194.998 340.607 195.162 340.693C195.326 340.783 195.906 340.938 196.902 341.156C197.566 341.312 198.064 341.549 198.396 341.865C198.725 342.186 198.889 342.586 198.889 343.066C198.889 343.699 198.652 344.217 198.18 344.619C197.711 345.018 196.984 345.217 196 345.217C194.996 345.217 194.254 345.006 193.773 344.584C193.297 344.158 193.059 343.617 193.059 342.961H194.752C194.787 343.258 194.863 343.469 194.98 343.594C195.188 343.816 195.57 343.928 196.129 343.928C196.457 343.928 196.717 343.879 196.908 343.781C197.104 343.684 197.201 343.537 197.201 343.342C197.201 343.154 197.123 343.012 196.967 342.914C196.811 342.816 196.23 342.648 195.227 342.41C194.504 342.23 193.994 342.006 193.697 341.736C193.4 341.471 193.252 341.088 193.252 340.588C193.252 339.998 193.482 339.492 193.943 339.07C194.408 338.645 195.061 338.432 195.9 338.432C196.697 338.432 197.348 338.59 197.852 338.906Z" fill="white"/>
<rect x="381" y="315.214" width="46.971" height="9.94973" transform="rotate(-45 381 315.214)" fill="white"/>
<path d="M378.505 339.253V341.648H376.743V345H373.746V341.648H367.58V338.974L373.306 329.521H376.743V339.253H378.505ZM369.847 339.253H373.746V332.528L369.847 339.253Z" fill="white"/>
<path d="M387.049 343.752C387.475 343.752 387.82 343.705 388.086 343.611C388.59 343.432 388.842 343.098 388.842 342.609C388.842 342.324 388.717 342.104 388.467 341.947C388.217 341.795 387.824 341.66 387.289 341.543L386.375 341.338C385.477 341.135 384.855 340.914 384.512 340.676C383.93 340.277 383.639 339.654 383.639 338.807C383.639 338.033 383.92 337.391 384.482 336.879C385.045 336.367 385.871 336.111 386.961 336.111C387.871 336.111 388.646 336.354 389.287 336.838C389.932 337.318 390.27 338.018 390.301 338.936H388.566C388.535 338.416 388.309 338.047 387.887 337.828C387.605 337.684 387.256 337.611 386.838 337.611C386.373 337.611 386.002 337.705 385.725 337.893C385.447 338.08 385.309 338.342 385.309 338.678C385.309 338.986 385.445 339.217 385.719 339.369C385.895 339.471 386.27 339.59 386.844 339.727L388.332 340.084C388.984 340.24 389.477 340.449 389.809 340.711C390.324 341.117 390.582 341.705 390.582 342.475C390.582 343.264 390.279 343.92 389.674 344.443C389.072 344.963 388.221 345.223 387.119 345.223C385.994 345.223 385.109 344.967 384.465 344.455C383.82 343.939 383.498 343.232 383.498 342.334H385.221C385.275 342.729 385.383 343.023 385.543 343.219C385.836 343.574 386.338 343.752 387.049 343.752ZM394.707 343.811V345.059L393.916 345.088C393.127 345.115 392.588 344.979 392.299 344.678C392.111 344.486 392.018 344.191 392.018 343.793V339.861H391.127V338.672H392.018V336.891H393.67V338.672H394.707V339.861H393.67V343.236C393.67 343.498 393.703 343.662 393.77 343.729C393.836 343.791 394.039 343.822 394.379 343.822C394.43 343.822 394.482 343.822 394.537 343.822C394.596 343.818 394.652 343.814 394.707 343.811ZM401.105 339.422C401.645 340.098 401.914 340.896 401.914 341.818C401.914 342.756 401.645 343.559 401.105 344.227C400.566 344.891 399.748 345.223 398.65 345.223C397.553 345.223 396.734 344.891 396.195 344.227C395.656 343.559 395.387 342.756 395.387 341.818C395.387 340.896 395.656 340.098 396.195 339.422C396.734 338.746 397.553 338.408 398.65 338.408C399.748 338.408 400.566 338.746 401.105 339.422ZM398.645 339.82C398.156 339.82 397.779 339.994 397.514 340.342C397.252 340.686 397.121 341.178 397.121 341.818C397.121 342.459 397.252 342.953 397.514 343.301C397.779 343.648 398.156 343.822 398.645 343.822C399.133 343.822 399.508 343.648 399.77 343.301C400.031 342.953 400.162 342.459 400.162 341.818C400.162 341.178 400.031 340.686 399.77 340.342C399.508 339.994 399.133 339.82 398.645 339.82ZM408.465 339.299C408.98 339.85 409.238 340.658 409.238 341.725C409.238 342.85 408.984 343.707 408.477 344.297C407.973 344.887 407.322 345.182 406.525 345.182C406.018 345.182 405.596 345.055 405.26 344.801C405.076 344.66 404.896 344.455 404.721 344.186V347.514H403.068V338.613H404.668V339.557C404.848 339.279 405.039 339.061 405.242 338.9C405.613 338.615 406.055 338.473 406.566 338.473C407.312 338.473 407.945 338.748 408.465 339.299ZM407.516 341.807C407.516 341.314 407.402 340.879 407.176 340.5C406.953 340.121 406.59 339.932 406.086 339.932C405.48 339.932 405.064 340.219 404.838 340.793C404.721 341.098 404.662 341.484 404.662 341.953C404.662 342.695 404.859 343.217 405.254 343.518C405.488 343.693 405.766 343.781 406.086 343.781C406.551 343.781 406.904 343.602 407.146 343.242C407.393 342.883 407.516 342.404 407.516 341.807ZM414.852 338.906C415.352 339.227 415.639 339.777 415.713 340.559H414.043C414.02 340.344 413.959 340.174 413.861 340.049C413.678 339.822 413.365 339.709 412.924 339.709C412.561 339.709 412.301 339.766 412.145 339.879C411.992 339.992 411.916 340.125 411.916 340.277C411.916 340.469 411.998 340.607 412.162 340.693C412.326 340.783 412.906 340.938 413.902 341.156C414.566 341.312 415.064 341.549 415.396 341.865C415.725 342.186 415.889 342.586 415.889 343.066C415.889 343.699 415.652 344.217 415.18 344.619C414.711 345.018 413.984 345.217 413 345.217C411.996 345.217 411.254 345.006 410.773 344.584C410.297 344.158 410.059 343.617 410.059 342.961H411.752C411.787 343.258 411.863 343.469 411.98 343.594C412.188 343.816 412.57 343.928 413.129 343.928C413.457 343.928 413.717 343.879 413.908 343.781C414.104 343.684 414.201 343.537 414.201 343.342C414.201 343.154 414.123 343.012 413.967 342.914C413.811 342.816 413.23 342.648 412.227 342.41C411.504 342.23 410.994 342.006 410.697 341.736C410.4 341.471 410.252 341.088 410.252 340.588C410.252 339.998 410.482 339.492 410.943 339.07C411.408 338.645 412.061 338.432 412.9 338.432C413.697 338.432 414.348 338.59 414.852 338.906Z" fill="white"/>
<rect x="267" y="315.214" width="46.971" height="9.94973" transform="rotate(-45 267 315.214)" fill="white"/>
<path d="M259.211 332.777C258.867 333.236 258.702 333.848 258.717 334.614H255.859C255.888 333.841 256.021 333.107 256.257 332.412C256.507 331.803 256.901 331.241 257.438 330.726C257.84 330.36 258.316 330.081 258.867 329.888C259.419 329.694 260.095 329.598 260.897 329.598C262.387 329.598 263.587 329.984 264.496 330.758C265.413 331.524 265.871 332.555 265.871 333.852C265.871 334.768 265.599 335.542 265.055 336.172C264.711 336.566 264.353 336.834 263.98 336.978C264.26 336.978 264.661 337.218 265.184 337.697C265.964 338.421 266.354 339.409 266.354 340.662C266.354 341.98 265.896 343.14 264.979 344.143C264.07 345.138 262.72 345.636 260.93 345.636C258.724 345.636 257.191 344.916 256.332 343.477C255.881 342.71 255.63 341.708 255.58 340.469H258.588C258.588 341.092 258.688 341.607 258.889 342.016C259.261 342.768 259.938 343.144 260.919 343.144C261.521 343.144 262.043 342.94 262.487 342.531C262.938 342.116 263.164 341.522 263.164 340.748C263.164 339.724 262.749 339.04 261.918 338.696C261.445 338.503 260.701 338.406 259.684 338.406V336.215C260.679 336.201 261.374 336.104 261.768 335.925C262.448 335.624 262.788 335.015 262.788 334.099C262.788 333.504 262.613 333.021 262.262 332.648C261.918 332.276 261.431 332.09 260.801 332.09C260.077 332.09 259.548 332.319 259.211 332.777Z" fill="white"/>
<path d="M275.049 344.001C275.475 344.001 275.82 343.954 276.086 343.86C276.59 343.681 276.842 343.347 276.842 342.858C276.842 342.573 276.717 342.353 276.467 342.196C276.217 342.044 275.824 341.909 275.289 341.792L274.375 341.587C273.477 341.384 272.855 341.163 272.512 340.925C271.93 340.526 271.639 339.903 271.639 339.056C271.639 338.282 271.92 337.64 272.482 337.128C273.045 336.616 273.871 336.36 274.961 336.36C275.871 336.36 276.646 336.603 277.287 337.087C277.932 337.567 278.27 338.267 278.301 339.185H276.566C276.535 338.665 276.309 338.296 275.887 338.077C275.605 337.933 275.256 337.86 274.838 337.86C274.373 337.86 274.002 337.954 273.725 338.142C273.447 338.329 273.309 338.591 273.309 338.927C273.309 339.235 273.445 339.466 273.719 339.618C273.895 339.72 274.27 339.839 274.844 339.976L276.332 340.333C276.984 340.489 277.477 340.698 277.809 340.96C278.324 341.366 278.582 341.954 278.582 342.724C278.582 343.513 278.279 344.169 277.674 344.692C277.072 345.212 276.221 345.472 275.119 345.472C273.994 345.472 273.109 345.216 272.465 344.704C271.82 344.189 271.498 343.482 271.498 342.583H273.221C273.275 342.978 273.383 343.273 273.543 343.468C273.836 343.823 274.338 344.001 275.049 344.001ZM282.707 344.06V345.308L281.916 345.337C281.127 345.364 280.588 345.228 280.299 344.927C280.111 344.735 280.018 344.44 280.018 344.042V340.11H279.127V338.921H280.018V337.14H281.67V338.921H282.707V340.11H281.67V343.485C281.67 343.747 281.703 343.911 281.77 343.978C281.836 344.04 282.039 344.071 282.379 344.071C282.43 344.071 282.482 344.071 282.537 344.071C282.596 344.067 282.652 344.064 282.707 344.06ZM289.105 339.671C289.645 340.347 289.914 341.146 289.914 342.067C289.914 343.005 289.645 343.808 289.105 344.476C288.566 345.14 287.748 345.472 286.65 345.472C285.553 345.472 284.734 345.14 284.195 344.476C283.656 343.808 283.387 343.005 283.387 342.067C283.387 341.146 283.656 340.347 284.195 339.671C284.734 338.995 285.553 338.657 286.65 338.657C287.748 338.657 288.566 338.995 289.105 339.671ZM286.645 340.069C286.156 340.069 285.779 340.243 285.514 340.591C285.252 340.935 285.121 341.427 285.121 342.067C285.121 342.708 285.252 343.202 285.514 343.55C285.779 343.898 286.156 344.071 286.645 344.071C287.133 344.071 287.508 343.898 287.77 343.55C288.031 343.202 288.162 342.708 288.162 342.067C288.162 341.427 288.031 340.935 287.77 340.591C287.508 340.243 287.133 340.069 286.645 340.069ZM296.465 339.548C296.98 340.099 297.238 340.907 297.238 341.974C297.238 343.099 296.984 343.956 296.477 344.546C295.973 345.136 295.322 345.431 294.525 345.431C294.018 345.431 293.596 345.304 293.26 345.05C293.076 344.909 292.896 344.704 292.721 344.435V347.763H291.068V338.862H292.668V339.806C292.848 339.528 293.039 339.31 293.242 339.149C293.613 338.864 294.055 338.722 294.566 338.722C295.312 338.722 295.945 338.997 296.465 339.548ZM295.516 342.056C295.516 341.564 295.402 341.128 295.176 340.749C294.953 340.37 294.59 340.181 294.086 340.181C293.48 340.181 293.064 340.468 292.838 341.042C292.721 341.347 292.662 341.733 292.662 342.202C292.662 342.944 292.859 343.466 293.254 343.767C293.488 343.942 293.766 344.03 294.086 344.03C294.551 344.03 294.904 343.851 295.146 343.491C295.393 343.132 295.516 342.653 295.516 342.056ZM302.852 339.155C303.352 339.476 303.639 340.026 303.713 340.808H302.043C302.02 340.593 301.959 340.423 301.861 340.298C301.678 340.071 301.365 339.958 300.924 339.958C300.561 339.958 300.301 340.015 300.145 340.128C299.992 340.241 299.916 340.374 299.916 340.526C299.916 340.718 299.998 340.857 300.162 340.942C300.326 341.032 300.906 341.187 301.902 341.405C302.566 341.562 303.064 341.798 303.396 342.114C303.725 342.435 303.889 342.835 303.889 343.315C303.889 343.948 303.652 344.466 303.18 344.868C302.711 345.267 301.984 345.466 301 345.466C299.996 345.466 299.254 345.255 298.773 344.833C298.297 344.407 298.059 343.866 298.059 343.21H299.752C299.787 343.507 299.863 343.718 299.98 343.843C300.188 344.065 300.57 344.177 301.129 344.177C301.457 344.177 301.717 344.128 301.908 344.03C302.104 343.933 302.201 343.786 302.201 343.591C302.201 343.403 302.123 343.261 301.967 343.163C301.811 343.065 301.23 342.898 300.227 342.659C299.504 342.48 298.994 342.255 298.697 341.985C298.4 341.72 298.252 341.337 298.252 340.837C298.252 340.247 298.482 339.741 298.943 339.319C299.408 338.894 300.061 338.681 300.9 338.681C301.697 338.681 302.348 338.839 302.852 339.155Z" fill="white"/>
<rect x="491" y="315.214" width="46.971" height="9.94973" transform="rotate(-45 491 315.214)" fill="white"/>
<path d="M484.865 337.515C484.493 337.515 484.171 337.561 483.898 337.654C483.419 337.826 483.057 338.145 482.813 338.61L480.063 338.482L481.159 329.877H489.742V332.477H483.372L482.813 335.882C483.286 335.574 483.655 335.37 483.92 335.27C484.364 335.105 484.905 335.023 485.542 335.023C486.831 335.023 487.955 335.456 488.915 336.322C489.875 337.189 490.354 338.449 490.354 340.104C490.354 341.543 489.893 342.829 488.969 343.96C488.045 345.092 486.663 345.657 484.822 345.657C483.34 345.657 482.122 345.26 481.17 344.465C480.217 343.67 479.688 342.542 479.58 341.081H482.631C482.753 341.747 482.985 342.263 483.329 342.628C483.673 342.986 484.174 343.165 484.833 343.165C485.592 343.165 486.169 342.9 486.562 342.37C486.964 341.833 487.164 341.16 487.164 340.351C487.164 339.556 486.978 338.886 486.605 338.342C486.233 337.79 485.653 337.515 484.865 337.515Z" fill="white"/>
<path d="M499.049 344.001C499.475 344.001 499.82 343.954 500.086 343.86C500.59 343.681 500.842 343.347 500.842 342.858C500.842 342.573 500.717 342.353 500.467 342.196C500.217 342.044 499.824 341.909 499.289 341.792L498.375 341.587C497.477 341.384 496.855 341.163 496.512 340.925C495.93 340.526 495.639 339.903 495.639 339.056C495.639 338.282 495.92 337.64 496.482 337.128C497.045 336.616 497.871 336.36 498.961 336.36C499.871 336.36 500.646 336.603 501.287 337.087C501.932 337.567 502.27 338.267 502.301 339.185H500.566C500.535 338.665 500.309 338.296 499.887 338.077C499.605 337.933 499.256 337.86 498.838 337.86C498.373 337.86 498.002 337.954 497.725 338.142C497.447 338.329 497.309 338.591 497.309 338.927C497.309 339.235 497.445 339.466 497.719 339.618C497.895 339.72 498.27 339.839 498.844 339.976L500.332 340.333C500.984 340.489 501.477 340.698 501.809 340.96C502.324 341.366 502.582 341.954 502.582 342.724C502.582 343.513 502.279 344.169 501.674 344.692C501.072 345.212 500.221 345.472 499.119 345.472C497.994 345.472 497.109 345.216 496.465 344.704C495.82 344.189 495.498 343.482 495.498 342.583H497.221C497.275 342.978 497.383 343.273 497.543 343.468C497.836 343.823 498.338 344.001 499.049 344.001ZM506.707 344.06V345.308L505.916 345.337C505.127 345.364 504.588 345.228 504.299 344.927C504.111 344.735 504.018 344.44 504.018 344.042V340.11H503.127V338.921H504.018V337.14H505.67V338.921H506.707V340.11H505.67V343.485C505.67 343.747 505.703 343.911 505.77 343.978C505.836 344.04 506.039 344.071 506.379 344.071C506.43 344.071 506.482 344.071 506.537 344.071C506.596 344.067 506.652 344.064 506.707 344.06ZM513.105 339.671C513.645 340.347 513.914 341.146 513.914 342.067C513.914 343.005 513.645 343.808 513.105 344.476C512.566 345.14 511.748 345.472 510.65 345.472C509.553 345.472 508.734 345.14 508.195 344.476C507.656 343.808 507.387 343.005 507.387 342.067C507.387 341.146 507.656 340.347 508.195 339.671C508.734 338.995 509.553 338.657 510.65 338.657C511.748 338.657 512.566 338.995 513.105 339.671ZM510.645 340.069C510.156 340.069 509.779 340.243 509.514 340.591C509.252 340.935 509.121 341.427 509.121 342.067C509.121 342.708 509.252 343.202 509.514 343.55C509.779 343.898 510.156 344.071 510.645 344.071C511.133 344.071 511.508 343.898 511.77 343.55C512.031 343.202 512.162 342.708 512.162 342.067C512.162 341.427 512.031 340.935 511.77 340.591C511.508 340.243 511.133 340.069 510.645 340.069ZM520.465 339.548C520.98 340.099 521.238 340.907 521.238 341.974C521.238 343.099 520.984 343.956 520.477 344.546C519.973 345.136 519.322 345.431 518.525 345.431C518.018 345.431 517.596 345.304 517.26 345.05C517.076 344.909 516.896 344.704 516.721 344.435V347.763H515.068V338.862H516.668V339.806C516.848 339.528 517.039 339.31 517.242 339.149C517.613 338.864 518.055 338.722 518.566 338.722C519.312 338.722 519.945 338.997 520.465 339.548ZM519.516 342.056C519.516 341.564 519.402 341.128 519.176 340.749C518.953 340.37 518.59 340.181 518.086 340.181C517.48 340.181 517.064 340.468 516.838 341.042C516.721 341.347 516.662 341.733 516.662 342.202C516.662 342.944 516.859 343.466 517.254 343.767C517.488 343.942 517.766 344.03 518.086 344.03C518.551 344.03 518.904 343.851 519.146 343.491C519.393 343.132 519.516 342.653 519.516 342.056ZM526.852 339.155C527.352 339.476 527.639 340.026 527.713 340.808H526.043C526.02 340.593 525.959 340.423 525.861 340.298C525.678 340.071 525.365 339.958 524.924 339.958C524.561 339.958 524.301 340.015 524.145 340.128C523.992 340.241 523.916 340.374 523.916 340.526C523.916 340.718 523.998 340.857 524.162 340.942C524.326 341.032 524.906 341.187 525.902 341.405C526.566 341.562 527.064 341.798 527.396 342.114C527.725 342.435 527.889 342.835 527.889 343.315C527.889 343.948 527.652 344.466 527.18 344.868C526.711 345.267 525.984 345.466 525 345.466C523.996 345.466 523.254 345.255 522.773 344.833C522.297 344.407 522.059 343.866 522.059 343.21H523.752C523.787 343.507 523.863 343.718 523.98 343.843C524.188 344.065 524.57 344.177 525.129 344.177C525.457 344.177 525.717 344.128 525.908 344.03C526.104 343.933 526.201 343.786 526.201 343.591C526.201 343.403 526.123 343.261 525.967 343.163C525.811 343.065 525.23 342.898 524.227 342.659C523.504 342.48 522.994 342.255 522.697 341.985C522.4 341.72 522.252 341.337 522.252 340.837C522.252 340.247 522.482 339.741 522.943 339.319C523.408 338.894 524.061 338.681 524.9 338.681C525.697 338.681 526.348 338.839 526.852 339.155Z" fill="white"/>
<rect x="596.231" y="315.231" width="46.6439" height="10.9866" transform="rotate(-45 596.231 315.231)" fill="white"/>
<path d="M590.725 335.39C592.107 335.39 593.238 335.859 594.119 336.797C595.007 337.735 595.451 338.935 595.451 340.396C595.451 341.849 595.018 343.131 594.151 344.241C593.285 345.351 591.938 345.906 590.112 345.906C588.15 345.906 586.703 345.086 585.772 343.446C585.049 342.165 584.688 340.51 584.688 338.484C584.688 337.295 584.738 336.328 584.838 335.583C585.017 334.258 585.364 333.155 585.88 332.275C586.324 331.523 586.904 330.917 587.62 330.459C588.343 330.001 589.206 329.772 590.209 329.772C591.656 329.772 592.809 330.144 593.668 330.889C594.527 331.626 595.011 332.611 595.118 333.843H592.067C592.067 333.592 591.971 333.317 591.777 333.016C591.448 332.529 590.95 332.285 590.284 332.285C589.289 332.285 588.58 332.844 588.157 333.961C587.928 334.577 587.771 335.486 587.685 336.69C588.064 336.238 588.505 335.909 589.006 335.701C589.507 335.494 590.08 335.39 590.725 335.39ZM588.662 338.312C588.061 338.777 587.76 339.529 587.76 340.568C587.76 341.405 587.985 342.089 588.437 342.619C588.888 343.149 589.461 343.414 590.155 343.414C590.836 343.414 591.369 343.16 591.756 342.651C592.15 342.136 592.347 341.47 592.347 340.653C592.347 339.744 592.125 339.049 591.681 338.569C591.237 338.082 590.692 337.839 590.048 337.839C589.525 337.839 589.063 337.997 588.662 338.312Z" fill="white"/>
<path d="M604.049 344.25C604.475 344.25 604.82 344.203 605.086 344.109C605.59 343.93 605.842 343.596 605.842 343.108C605.842 342.822 605.717 342.602 605.467 342.445C605.217 342.293 604.824 342.158 604.289 342.041L603.375 341.836C602.477 341.633 601.855 341.412 601.512 341.174C600.93 340.776 600.639 340.152 600.639 339.305C600.639 338.531 600.92 337.889 601.482 337.377C602.045 336.865 602.871 336.609 603.961 336.609C604.871 336.609 605.646 336.852 606.287 337.336C606.932 337.817 607.27 338.516 607.301 339.434H605.566C605.535 338.914 605.309 338.545 604.887 338.326C604.605 338.182 604.256 338.109 603.838 338.109C603.373 338.109 603.002 338.203 602.725 338.391C602.447 338.578 602.309 338.84 602.309 339.176C602.309 339.484 602.445 339.715 602.719 339.867C602.895 339.969 603.27 340.088 603.844 340.225L605.332 340.582C605.984 340.738 606.477 340.947 606.809 341.209C607.324 341.615 607.582 342.203 607.582 342.973C607.582 343.762 607.279 344.418 606.674 344.942C606.072 345.461 605.221 345.721 604.119 345.721C602.994 345.721 602.109 345.465 601.465 344.953C600.82 344.438 600.498 343.731 600.498 342.832H602.221C602.275 343.227 602.383 343.522 602.543 343.717C602.836 344.072 603.338 344.25 604.049 344.25ZM611.707 344.309V345.557L610.916 345.586C610.127 345.613 609.588 345.477 609.299 345.176C609.111 344.984 609.018 344.69 609.018 344.291V340.359H608.127V339.17H609.018V337.389H610.67V339.17H611.707V340.359H610.67V343.734C610.67 343.996 610.703 344.16 610.77 344.227C610.836 344.289 611.039 344.32 611.379 344.32C611.43 344.32 611.482 344.32 611.537 344.32C611.596 344.317 611.652 344.313 611.707 344.309ZM618.105 339.92C618.645 340.596 618.914 341.395 618.914 342.317C618.914 343.254 618.645 344.057 618.105 344.725C617.566 345.389 616.748 345.721 615.65 345.721C614.553 345.721 613.734 345.389 613.195 344.725C612.656 344.057 612.387 343.254 612.387 342.317C612.387 341.395 612.656 340.596 613.195 339.92C613.734 339.244 614.553 338.906 615.65 338.906C616.748 338.906 617.566 339.244 618.105 339.92ZM615.645 340.318C615.156 340.318 614.779 340.492 614.514 340.84C614.252 341.184 614.121 341.676 614.121 342.317C614.121 342.957 614.252 343.451 614.514 343.799C614.779 344.147 615.156 344.32 615.645 344.32C616.133 344.32 616.508 344.147 616.77 343.799C617.031 343.451 617.162 342.957 617.162 342.317C617.162 341.676 617.031 341.184 616.77 340.84C616.508 340.492 616.133 340.318 615.645 340.318ZM625.465 339.797C625.98 340.348 626.238 341.156 626.238 342.223C626.238 343.348 625.984 344.205 625.477 344.795C624.973 345.385 624.322 345.68 623.525 345.68C623.018 345.68 622.596 345.553 622.26 345.299C622.076 345.158 621.896 344.953 621.721 344.684V348.012H620.068V339.111H621.668V340.055C621.848 339.777 622.039 339.559 622.242 339.399C622.613 339.113 623.055 338.971 623.566 338.971C624.312 338.971 624.945 339.246 625.465 339.797ZM624.516 342.305C624.516 341.813 624.402 341.377 624.176 340.998C623.953 340.619 623.59 340.43 623.086 340.43C622.48 340.43 622.064 340.717 621.838 341.291C621.721 341.596 621.662 341.983 621.662 342.451C621.662 343.193 621.859 343.715 622.254 344.016C622.488 344.192 622.766 344.279 623.086 344.279C623.551 344.279 623.904 344.1 624.146 343.74C624.393 343.381 624.516 342.902 624.516 342.305ZM631.852 339.404C632.352 339.725 632.639 340.276 632.713 341.057H631.043C631.02 340.842 630.959 340.672 630.861 340.547C630.678 340.32 630.365 340.207 629.924 340.207C629.561 340.207 629.301 340.264 629.145 340.377C628.992 340.49 628.916 340.623 628.916 340.776C628.916 340.967 628.998 341.106 629.162 341.192C629.326 341.281 629.906 341.436 630.902 341.654C631.566 341.811 632.064 342.047 632.396 342.363C632.725 342.684 632.889 343.084 632.889 343.565C632.889 344.197 632.652 344.715 632.18 345.117C631.711 345.516 630.984 345.715 630 345.715C628.996 345.715 628.254 345.504 627.773 345.082C627.297 344.656 627.059 344.115 627.059 343.459H628.752C628.787 343.756 628.863 343.967 628.98 344.092C629.188 344.315 629.57 344.426 630.129 344.426C630.457 344.426 630.717 344.377 630.908 344.279C631.104 344.182 631.201 344.035 631.201 343.84C631.201 343.652 631.123 343.51 630.967 343.412C630.811 343.315 630.23 343.147 629.227 342.908C628.504 342.729 627.994 342.504 627.697 342.234C627.4 341.969 627.252 341.586 627.252 341.086C627.252 340.496 627.482 339.99 627.943 339.568C628.408 339.143 629.061 338.93 629.9 338.93C630.697 338.93 631.348 339.088 631.852 339.404Z" fill="white"/>
</g>
<defs>
<filter id="filter0_ddd_8_2" x="-10.6766" y="-23.985" width="304.322" height="304.322" filterUnits="userSpaceOnUse" color-interpolation-filters="sRGB">
<feFlood flood-opacity="0" result="BackgroundImageFix"/>
<feColorMatrix in="SourceAlpha" type="matrix" values="0 0 0 0 0 0 0 0 0 0 0 0 0 0 0 0 0 0 127 0" result="hardAlpha"/>
<feOffset/>
<feGaussianBlur stdDeviation="10"/>
<feComposite in2="hardAlpha" operator="out"/>
<feColorMatrix type="matrix" values="0 0 0 0 1 0 0 0 0 0.301961 0 0 0 0 0.301961 0 0 0 1 0"/>
<feBlend mode="normal" in2="BackgroundImageFix" result="effect1_dropShadow_8_2"/>
<feColorMatrix in="SourceAlpha" type="matrix" values="0 0 0 0 0 0 0 0 0 0 0 0 0 0 0 0 0 0 127 0" result="hardAlpha"/>
<feOffset dy="4"/>
<feGaussianBlur stdDeviation="2"/>
<feComposite in2="hardAlpha" operator="out"/>
<feColorMatrix type="matrix" values="0 0 0 0 0 0 0 0 0 0 0 0 0 0 0 0 0 0 0.25 0"/>
<feBlend mode="normal" in2="effect1_dropShadow_8_2" result="effect2_dropShadow_8_2"/>
<feColorMatrix in="SourceAlpha" type="matrix" values="0 0 0 0 0 0 0 0 0 0 0 0 0 0 0 0 0 0 127 0" result="hardAlpha"/>
<feOffset dy="4"/>
<feGaussianBlur stdDeviation="2"/>
<feComposite in2="hardAlpha" operator="out"/>
<feColorMatrix type="matrix" values="0 0 0 0 0 0 0 0 0 0 0 0 0 0 0 0 0 0 0.25 0"/>
<feBlend mode="normal" in2="effect2_dropShadow_8_2" result="effect3_dropShadow_8_2"/>
<feBlend mode="normal" in="SourceGraphic" in2="effect3_dropShadow_8_2" result="shape"/>
</filter>
<filter id="filter1_d_8_2" x="51.0427" y="0.578156" width="317.583" height="317.583" filterUnits="userSpaceOnUse" color-interpolation-filters="sRGB">
<feFlood flood-opacity="0" result="BackgroundImageFix"/>
<feColorMatrix in="SourceAlpha" type="matrix" values="0 0 0 0 0 0 0 0 0 0 0 0 0 0 0 0 0 0 127 0" result="hardAlpha"/>
<feOffset/>
<feGaussianBlur stdDeviation="5"/>
<feComposite in2="hardAlpha" operator="out"/>
<feColorMatrix type="matrix" values="0 0 0 0 0.694118 0 0 0 0 0.105882 0 0 0 0 0.156863 0 0 0 0.49 0"/>
<feBlend mode="normal" in2="BackgroundImageFix" result="effect1_dropShadow_8_2"/>
<feBlend mode="normal" in="SourceGraphic" in2="effect1_dropShadow_8_2" result="shape"/>
</filter>
<clipPath id="clip0_8_2">
<rect width="637" height="350" fill="white"/>
</clipPath>
</defs>
</svg>
